PathFileType	4	(X/Y/Z)	Kaydara	
DataRate	CameraRate	NumFrames	NumMarkers	Units	OrigDataRate	OrigDataStartFrame	OrigNumFrames	
60.00	60.00	4	74	mm	60.00	392	98	
Frame#	Time	Y_rasi			Y_rpsi			Y_lpsi			Y_fneck			Y_bneck			Y_fhead			Y_rhead			Y_rshld			Y_relbtop			Y_relbext			Y_relblow			Y_rwrext			Y_rwrtop			Y_rwrlow			Y_lshld			Y_lelbext			Y_lelblow			Y_lelbtop			Y_lwrext			Y_lwrtop			Y_lwrlow			Y_rtopleg			Y_ltopleg			Y_rkneefr			Y_rkneebk			Y_rkneeis			Y_lkneefr			Y_lknssbk			Y_lkneeis			Y_rankfr			Y_rankis			Y_rankbk			Y_lankfr			Y_lankbk			Y_lankis			Y_lhead			Y_lasi			D_rpsi			D_lpsi			D_fneck			D_bneck			D_fhead			D_rhead			D_lhead			D_rshld			D_relbtop			D_relbext			D_relblow			D_rwrext			D_rwrtop			D_rwrlow			D_lshld			D_lelbext			D_lelblow			D_lelbtop			D_lwrext			D_lwrtop			D_lwrlow			D_rtopleg			D_ltopleg			D_rkneefr			D_rkneebk			D_rkneeis			D_lkneefr			D_lknssbk			D_lkneeis			D_rankfr			D_rankis			D_rankbk			D_lankfr			D_lankbk			D_lankis			D_lasi			D_rasi			
		X1	Y1	Z1	X2	Y2	Z2	X3	Y3	Z3	X4	Y4	Z4	X5	Y5	Z5	X6	Y6	Z6	X7	Y7	Z7	X8	Y8	Z8	X9	Y9	Z9	X10	Y10	Z10	X11	Y11	Z11	X12	Y12	Z12	X13	Y13	Z13	X14	Y14	Z14	X15	Y15	Z15	X16	Y16	Z16	X17	Y17	Z17	X18	Y18	Z18	X19	Y19	Z19	X20	Y20	Z20	X21	Y21	Z21	X22	Y22	Z22	X23	Y23	Z23	X24	Y24	Z24	X25	Y25	Z25	X26	Y26	Z26	X27	Y27	Z27	X28	Y28	Z28	X29	Y29	Z29	X30	Y30	Z30	X31	Y31	Z31	X32	Y32	Z32	X33	Y33	Z33	X34	Y34	Z34	X35	Y35	Z35	X36	Y36	Z36	X37	Y37	Z37	X38	Y38	Z38	X39	Y39	Z39	X40	Y40	Z40	X41	Y41	Z41	X42	Y42	Z42	X43	Y43	Z43	X44	Y44	Z44	X45	Y45	Z45	X46	Y46	Z46	X47	Y47	Z47	X48	Y48	Z48	X49	Y49	Z49	X50	Y50	Z50	X51	Y51	Z51	X52	Y52	Z52	X53	Y53	Z53	X54	Y54	Z54	X55	Y55	Z55	X56	Y56	Z56	X57	Y57	Z57	X58	Y58	Z58	X59	Y59	Z59	X60	Y60	Z60	X61	Y61	Z61	X62	Y62	Z62	X63	Y63	Z63	X64	Y64	Z64	X65	Y65	Z65	X66	Y66	Z66	X67	Y67	Z67	X68	Y68	Z68	X69	Y69	Z69	X70	Y70	Z70	X71	Y71	Z71	X72	Y72	Z72	X73	Y73	Z73	X74	Y74	Z74	

25	6.517	-585.57831	1091.43288	-126.34828	-571.31214	1069.53491	-305.35828	-349.45175	1055.14694	-225.22682	-488.16628	1435.46417	-152.87477	-401.70738	1477.92603	-233.12757	-519.60316	1645.31631	-94.49245	-489.96212	1577.08023	-257.74120	-624.99046	1421.87408	-278.01983	-691.15181	1104.85619	-296.30020	-706.67976	1124.75769	-349.47651	-640.29945	1102.27623	-360.66265	-730.06393	836.51680	-339.30519	-761.93222	846.02760	-312.30526	-744.67804	850.05104	-271.04511	-273.48852	1377.48962	-96.46534	-197.01572	1070.13123	-105.28109	-240.72123	1055.91934	-143.91400	-248.17822	1071.75110	-59.91024	-219.08449	811.69952	-73.83273	-223.00489	816.39359	-30.64563	-268.80484	823.63762	-28.91767	-651.35750	914.47449	-265.05026	-321.34407	903.98682	-110.52975	-650.18356	411.63300	-273.39893	-629.22890	458.85433	-347.17525	-556.25835	420.90431	-261.09110	-356.50162	475.47523	-95.93580	-293.86536	497.11143	-189.38017	-413.61450	467.60906	-173.67519	-635.38776	141.70029	-327.64812	-564.69635	136.06295	-339.21429	-605.41553	138.51484	-393.37429	-281.18633	133.08830	-165.33815	-265.07299	134.88062	-234.06830	-337.25025	126.16038	-202.16640	-373.70399	1562.87598	-159.60915	-435.52959	1077.53502	-70.05383	-895.54909	1173.60252	633.33355	-1048.80875	1195.29984	544.20685	-875.96481	1615.30380	520.22041	-958.36281	1656.83029	602.09351	-850.75081	1805.54718	401.66969	-868.55858	1805.69504	580.59429	-997.31895	1797.89963	497.46742	-762.96906	1570.52338	631.21094	-734.54056	1198.37631	614.69582	-677.45049	1212.44278	648.56155	-738.39104	1200.55801	698.86490	-652.56874	918.23074	610.94688	-638.05470	926.76506	572.87384	-677.21298	932.87918	544.55971	-1112.12112	1572.53052	472.29408	-1133.03818	1202.59811	390.99060	-1110.50537	1178.44772	461.03580	-1069.61609	1209.99855	392.34673	-1065.66933	959.71756	340.00366	-1042.80678	981.49818	307.04123	-1003.67210	983.32794	333.08018	-787.72194	1030.86647	610.38277	-1088.25172	1037.56004	424.52461	-809.83780	557.00562	502.22950	-811.04240	558.03917	614.24614	-918.48152	548.42079	547.23675	-991.57776	472.95860	367.10594	-1074.89182	520.21343	427.42855	-982.76428	498.99624	480.55626	-827.86484	190.06695	558.71468	-904.23843	187.31434	546.23169	-874.80598	180.76292	626.50269	-1054.52477	166.12074	412.78774	-1071.84204	159.95447	490.43148	-989.82430	165.26527	444.70364	-975.45242	1200.31311	399.15119	-791.09016	1182.87636	491.58089 
26	6.533	-584.81197	1091.28059	-125.94745	-570.97225	1069.56680	-304.93029	-348.97472	1055.35110	-225.21852	-487.84096	1435.25085	-152.19605	-401.66096	1477.97302	-232.64463	-519.97322	1644.83658	-93.45095	-490.04108	1577.05444	-256.93470	-624.87934	1421.95648	-278.01455	-690.51773	1105.64919	-303.02973	-704.77654	1126.31638	-356.33854	-637.87590	1103.63441	-365.43644	-729.18602	837.81250	-346.92562	-761.50391	847.61589	-320.64014	-744.92393	852.07939	-279.19952	-271.79413	1377.92801	-97.58115	-190.18499	1072.16454	-112.35985	-234.73072	1057.59285	-149.77592	-239.86517	1072.85271	-65.09824	-209.84545	812.92221	-81.36124	-212.66171	817.43156	-37.74024	-257.71851	825.04219	-34.99973	-650.68352	914.58405	-265.20124	-320.38040	903.62587	-111.00479	-648.21831	412.15809	-276.54671	-627.50481	459.23092	-350.51743	-554.15997	421.54091	-264.80394	-356.37817	475.10204	-98.41174	-293.34860	497.06699	-191.58237	-413.10604	467.70073	-176.01702	-634.90608	142.05055	-328.44486	-564.88903	135.73663	-339.80068	-605.01266	138.08084	-394.36867	-281.08362	132.97915	-166.00811	-264.96490	134.35953	-234.71174	-337.16103	125.94913	-202.83180	-373.68713	1563.00690	-158.80589	-434.88537	1077.54684	-70.22100	-897.31857	1173.30330	633.19000	-1050.09308	1194.95941	543.48515	-877.60849	1615.26505	519.17706	-960.02716	1656.81366	601.12137	-852.38380	1805.39063	400.78243	-870.34172	1805.65979	579.64664	-999.08287	1797.76031	496.41068	-764.40796	1570.74631	630.57972	-736.52916	1198.94455	614.78436	-681.39450	1212.64809	651.90941	-745.24170	1200.66483	698.65150	-656.90353	919.29382	610.93594	-637.31033	928.17810	575.22705	-673.46947	935.64957	543.24566	-1113.48534	1572.39044	470.88547	-1134.33075	1202.24205	390.41363	-1111.18927	1178.17955	460.31876	-1070.92407	1209.72176	391.72642	-1066.58638	959.55009	339.06773	-1043.56888	981.48109	306.27748	-1004.56673	983.40584	332.32819	-788.81271	1030.86670	610.07206	-1089.20616	1037.00821	423.96675	-809.27116	557.29656	500.37647	-810.85732	557.84832	612.51335	-917.88399	548.39340	545.23449	-991.98418	472.80987	367.69840	-1075.45593	519.94396	428.16395	-982.91084	498.93528	481.14166	-827.67212	189.82630	558.02399	-904.27574	187.38386	545.54939	-874.59930	180.98333	625.91377	-1054.38652	165.85075	412.96711	-1071.61705	159.57736	490.66872	-989.62715	165.05283	444.86126	-976.39816	1200.16586	398.48114	-792.55394	1183.06602	491.68499 
27	6.550	-583.94417	1090.87189	-125.39334	-570.56030	1069.72557	-304.36441	-348.61656	1055.68848	-224.93849	-487.38907	1435.08408	-151.53739	-401.51993	1478.10684	-232.12833	-520.16827	1644.44839	-92.39951	-490.15198	1577.16263	-256.00863	-624.66824	1422.07489	-278.16570	-688.89160	1106.73958	-309.57611	-702.24144	1128.05031	-362.72934	-635.44098	1105.32768	-370.80940	-727.99286	839.30382	-353.41743	-760.71236	849.53026	-327.73365	-744.54666	854.10965	-286.06281	-270.29074	1378.67401	-98.54675	-184.65496	1074.28856	-119.07817	-229.72967	1059.56993	-155.58578	-232.60143	1074.18358	-70.07227	-202.13652	814.52103	-88.86857	-203.50821	818.85956	-45.11045	-248.21199	827.00676	-39.99911	-649.97978	914.63112	-265.55584	-319.55229	903.30009	-111.57291	-646.70662	412.69665	-279.16681	-625.93124	459.42013	-353.33359	-552.16080	421.93604	-268.09103	-355.99396	474.94591	-100.72239	-292.53668	496.90941	-193.90348	-412.47509	467.58820	-178.63251	-634.51725	142.24110	-329.27662	-563.99307	135.81912	-340.94841	-604.73530	137.77040	-395.04501	-280.77757	132.80616	-166.72447	-264.66106	133.93184	-235.35124	-337.03869	125.81857	-203.49144	-373.75271	1563.28751	-158.01357	-434.16603	1077.38266	-70.29625	-898.63678	1173.19603	632.89463	-1051.36101	1194.74922	542.88654	-879.45648	1615.21774	518.14598	-961.79726	1656.79947	600.05344	-854.13307	1805.31113	399.88464	-872.50343	1805.64590	578.75824	-1000.93292	1797.69516	495.25036	-765.90141	1570.92880	630.04940	-739.01657	1199.64935	614.95670	-685.84496	1212.91077	655.22156	-752.02187	1200.73662	698.40538	-661.08078	919.67606	611.13110	-637.32834	929.55368	577.99732	-669.34090	938.70483	541.94359	-1115.03578	1572.32697	469.70585	-1135.45250	1201.97479	389.79809	-1112.12006	1178.09799	459.63295	-1071.90422	1209.60899	391.02066	-1067.64633	959.38309	338.38844	-1044.63509	981.48911	305.20052	-1005.53894	983.10486	331.69571	-789.74365	1030.79597	609.56104	-1090.11620	1036.64116	423.48526	-809.28360	557.67525	498.60138	-810.63316	557.99393	610.73895	-917.80548	548.55652	543.52985	-992.20078	472.74925	368.11733	-1075.79842	519.80335	428.51818	-983.11775	498.91602	481.50375	-827.73560	189.74903	556.96182	-904.41185	187.32370	544.85817	-874.61029	181.20480	625.21454	-1054.17534	165.70599	413.26363	-1071.42647	159.28277	490.72857	-989.50912	164.94080	444.91035	-977.78633	1200.11147	397.74803	-793.91747	1183.14682	491.11286 
28	6.567	-583.09578	1090.28610	-124.78135	-570.41435	1069.83780	-304.30111	-348.11852	1056.12305	-224.76690	-486.99379	1435.04456	-151.05040	-401.38126	1478.33481	-231.64373	-520.29919	1644.03946	-91.30629	-490.46661	1577.25235	-255.16445	-624.21417	1422.45758	-278.04510	-687.25929	1107.93434	-315.39639	-699.10484	1129.90578	-368.64330	-632.26479	1106.98532	-375.21629	-726.45828	840.95894	-358.25043	-759.88426	851.74217	-333.88283	-744.51164	856.80779	-291.79972	-269.04638	1379.60434	-99.34554	-180.12724	1076.45546	-125.57606	-225.82169	1061.56296	-161.13380	-227.33690	1075.43655	-79.25824	-195.63507	816.29753	-96.28393	-195.67545	820.48615	-52.39046	-241.31413	828.02544	-48.37280	-649.25064	914.64348	-266.01969	-318.83692	903.01033	-112.15018	-645.56992	412.99751	-280.98797	-624.72523	459.39732	-355.52059	-550.67558	421.93951	-270.36600	-354.43977	474.38358	-103.57427	-291.35715	496.81126	-196.36847	-411.42891	467.53017	-181.08257	-634.14246	142.37928	-329.99413	-563.38966	135.76396	-341.66645	-604.38740	137.45840	-395.68794	-280.30325	132.59117	-167.34663	-264.29272	133.55131	-236.00719	-336.72203	125.72732	-204.03540	-373.65894	1563.68317	-157.45404	-433.42476	1076.97342	-70.67070	-899.91982	1173.21556	632.46380	-1052.41638	1194.64073	542.49653	-881.17256	1615.36453	516.95759	-963.68141	1656.88385	598.94585	-855.71548	1805.29846	399.00352	-874.45053	1805.67917	577.63481	-1002.85324	1797.68845	494.05365	-767.66380	1571.05011	629.73381	-741.61415	1200.18417	615.20325	-690.61050	1213.04123	658.38310	-758.61504	1200.96069	697.86667	-666.46179	920.05226	610.31452	-638.32123	930.53146	580.82928	-665.58121	941.74141	541.81786	-1116.62766	1572.29614	468.47385	-1136.45554	1201.82777	389.02611	-1113.04184	1178.22769	458.99765	-1073.04245	1209.54102	389.98074	-1068.73657	959.11537	337.75646	-1045.85403	981.04118	305.10294	-1006.81564	982.76115	330.87074	-790.31898	1030.94376	608.88050	-1090.91492	1036.41380	423.06156	-809.86458	557.88776	497.09312	-810.52238	558.29041	608.99342	-918.16383	548.78002	542.32677	-992.16805	472.77267	368.26340	-1075.98061	519.70936	428.35789	-983.41896	498.83533	481.66348	-827.90268	189.77747	556.28021	-904.71855	187.31512	544.31835	-874.63104	181.40518	624.53766	-1053.72192	165.50322	413.93707	-1071.42296	159.10733	490.62920	-989.39896	164.88106	445.02041	-979.25079	1200.12817	396.88633	-795.58823	1183.44788	490.61394 
